<svg id="레이어_1" data-name="레이어 1" xmlns="http://www.w3.org/2000/svg" viewBox="0 0 100 35"><path d="M23.81,17.26a5.34,5.34,0,0,0-6.65-.42,5.07,5.07,0,0,0-2.47,4.9,4.46,4.46,0,0,0,2.9,3.6A3.19,3.19,0,0,0,21,24.48a1.2,1.2,0,0,0-1.72-1.67.81.81,0,0,1-.91.26,2.11,2.11,0,0,1-1.27-1.67,2.7,2.7,0,0,1,1.45-2.59,3,3,0,0,1,3.75.26c1.4,1.21,2.19,3.71.8,6.6-.63,1.31-2.21,2.38-4.34,3a12.6,12.6,0,0,1-9.8-1.33C5.48,25,4.43,20.21,6,14.24,7.9,7.3,13.43,5.48,17.6,6c3.35.44,5.69,2.32,5.74,4.57v0a2.52,2.52,0,0,1-.09.67.74.74,0,0,1-.58.57,1.19,1.19,0,0,0-.87,1.36,1.16,1.16,0,0,0,1.26,1l.12,0h0l.16,0a2.74,2.74,0,0,0,1.36-.75,3.72,3.72,0,0,0,.46-.56l0,0,.09-.14a4.25,4.25,0,0,0,.49-1.89c0-.11,0-.23,0-.33-.13-3.42-3.3-6.19-7.81-6.79-5.53-.72-12.07,2.07-14.19,10-1.88,7-.48,12.72,3.85,15.66a14,14,0,0,0,7.75,2.18,15.28,15.28,0,0,0,4-.53c2.84-.76,4.92-2.26,5.86-4.22C27.16,22.68,25.91,19.06,23.81,17.26Z"/><path d="M61.25,30.71a12.93,12.93,0,0,1-6-1.57c-.45-.23-.91-.49-1.4-.76l-.12-.07a9.72,9.72,0,0,1-2.58,1.43c-2.59,1-4.83.45-5.7-1.28a2.86,2.86,0,0,1,.8-3.48c2.08-1.62,4.71-.68,7.08.55A3,3,0,0,0,54.05,23c-.35-1.41-1-2.24-1.88-2.53-.76-.24-1.91-.6-4,1.78a4.58,4.58,0,0,1-3,1.76,22.22,22.22,0,0,1-2.74,3.7c-1.28,1.33-2.44,2-3.55,2-1.9,0-3.74-2.07-5.8-6.51a60.33,60.33,0,0,1-2.36-6,1.12,1.12,0,1,1,2.14-.69,59.05,59.05,0,0,0,2.27,5.74c2.38,5.13,3.69,5.19,3.75,5.19s.78-.09,1.93-1.29a18.39,18.39,0,0,0,2.06-2.69,7.27,7.27,0,0,1-3-5.92A4.47,4.47,0,0,1,44.46,13c2.19,0,3.83,1.21,3.9,2.95a10.82,10.82,0,0,1-1.07,4c2.32-2.23,4.17-2.05,5.56-1.62,1.17.38,2.71,1.4,3.39,4.15a5.08,5.08,0,0,1-.87,4.15c.33.18.64.36.94.51,4.82,2.49,7.89.72,8,.64a1.13,1.13,0,0,1,1.18,1.92A8.46,8.46,0,0,1,61.25,30.71ZM48.87,26.38a1.86,1.86,0,0,0-1.21.38.61.61,0,0,0-.17.68c.37.73,1.77.61,2.91.19a7.21,7.21,0,0,0,1.09-.51A6.66,6.66,0,0,0,48.87,26.38ZM44.54,15.23h0a2.28,2.28,0,0,0-2.39,2.34,5,5,0,0,0,1.93,4c1.25-2.32,2.12-4.61,2.08-5.5C46.09,15.54,45.29,15.23,44.54,15.23Z"/><path d="M31.14,30.65a5.79,5.79,0,0,1-2.5-.55A6.23,6.23,0,0,1,25.27,26a8.3,8.3,0,0,1,.56-5.67c1.79-3.85,6-5.72,9.32-4.16s4.6,6,2.8,9.81A7.76,7.76,0,0,1,31.14,30.65Zm1.48-12.81a5.54,5.54,0,0,0-4.75,3.41,6,6,0,0,0-.42,4.13,4,4,0,0,0,2.14,2.68,3.6,3.6,0,0,0,1.57.35A5.53,5.53,0,0,0,35.91,25c1.27-2.73.5-5.79-1.71-6.82A3.81,3.81,0,0,0,32.62,17.84Z"/><path d="M63.27,30.2a5,5,0,0,1-2.15-.48c-2.84-1.32-3.91-5-2.39-8.3A7,7,0,0,1,62.09,18a5.19,5.19,0,0,1,7.39,3.45,7.2,7.2,0,0,1-3.83,8.21A5.7,5.7,0,0,1,63.27,30.2Zm1.2-10.5A3.47,3.47,0,0,0,63,20a4.83,4.83,0,0,0-2.27,2.34c-1,2.13-.4,4.51,1.31,5.31a3.1,3.1,0,0,0,2.64-.07A4.79,4.79,0,0,0,67,25.27h0A4.77,4.77,0,0,0,67.31,22,3.09,3.09,0,0,0,65.67,20,2.88,2.88,0,0,0,64.47,19.7Z"/><path d="M92.75,14.46a4.46,4.46,0,0,1-.63-.05,3.24,3.24,0,0,1-2.71-2.62,3.17,3.17,0,0,1,1.14-3.48,2.57,2.57,0,0,1,2.92.14,1.05,1.05,0,1,1-1.25,1.69.51.51,0,0,0-.54-.05c-.2.13-.36.53-.2,1.27a1.13,1.13,0,0,0,1,1,1.77,1.77,0,0,0,1.77-.77c.59-1,1.14-2.39.36-3.48A3.51,3.51,0,0,0,91.05,7c-1.26.27-2.51,1.22-3.1,6.35a1.06,1.06,0,0,1-2.1-.24c.6-5.21,2-7.58,4.76-8.18a5.56,5.56,0,0,1,5.7,1.9c.66.92,1.49,2.89-.26,5.8A3.88,3.88,0,0,1,92.75,14.46Z"/><path d="M69.66,30.58a2.67,2.67,0,0,1-2.09-.85c-1-1.08-1-3-.1-6.21a1.13,1.13,0,0,1,1.39-.78,1.11,1.11,0,0,1,.78,1.38c-.93,3.37-.44,4.06-.38,4.13s.2.14.88,0c.3,0,1.31-.58,1.56-5.8.21-4.44,2-6.12,3.37-6.75a5.85,5.85,0,0,1,5.79,1,2.33,2.33,0,0,1,.84,2.11,1,1,0,0,1-.11.34l-1.4,2.93a7,7,0,0,0-.4,3.64c.41,2.57,2.22,2.6,3,2.5.38-.06,2.31-.88,2.72-11.92a1.13,1.13,0,0,1,2.25,0c.08,3.37.65,9.27,1.88,10.79a2.83,2.83,0,0,0,2.14,1.15,1.13,1.13,0,0,1,.15,2.25,5.1,5.1,0,0,1-4-2,8.06,8.06,0,0,1-1.22-2.74c-.77,2.95-1.93,4.44-3.56,4.66-2.34.33-5-.9-5.51-4.36a9.31,9.31,0,0,1,.53-4.85l0-.08,1.3-2.71h0A3.7,3.7,0,0,0,76,17.8c-1.52.67-1.94,3-2,4.8-.18,3.7-.73,7.54-3.5,7.92A6.56,6.56,0,0,1,69.66,30.58Z"/></svg>