<svg id="레이어_1" data-name="레이어 1" xmlns="http://www.w3.org/2000/svg" viewBox="0 0 36 35"><defs><style>.cls-1{fill:#5b86ef;}.cls-2{fill:#fff;}</style></defs><path class="cls-1" d="M32.27,20.67C30.49,31.19,21.15,33.4,13.66,31.58S2,21.54,3.82,13.85A13.88,13.88,0,0,1,20,3.05C27.89,4.32,34.23,9.1,32.27,20.67Z"/><path class="cls-2" d="M20.45,12.49a1.44,1.44,0,0,0-.94.75,1.74,1.74,0,0,0-.07,1.22,2,2,0,0,0,.72,1.07,1.38,1.38,0,0,0,1.2.2,2.13,2.13,0,0,1,2.16.31,2.65,2.65,0,0,1,.14,2.68c-.55,1.31-1.52,2.47-4.57,1.19a1.37,1.37,0,0,0-1.92.88,2.15,2.15,0,0,0-.15,1.3,1.28,1.28,0,0,0,.77.93,10,10,0,0,0,3.18.8h.42A5.58,5.58,0,0,0,24,23.22,6.06,6.06,0,0,0,26.76,20,5.86,5.86,0,0,0,26,13.82,5.26,5.26,0,0,0,20.45,12.49Z"/><path class="cls-2" d="M17.23,10.91A1.93,1.93,0,0,0,16,9.68a3.36,3.36,0,0,0-3.66,1.12A1.93,1.93,0,0,0,12,12.52a2,2,0,0,0,1.26,1.23,2.94,2.94,0,0,0,1,.17,3.67,3.67,0,0,0,1-.16,3.21,3.21,0,0,0,1.65-1.13A1.93,1.93,0,0,0,17.23,10.91Z"/><path class="cls-2" d="M14.13,15.46c-.92-.06-1.76,0-1.93,1.78a6.76,6.76,0,0,1-1.75,4.07,2.05,2.05,0,0,0-.76,1.47A1.8,1.8,0,0,0,10.45,24a2.9,2.9,0,0,0,1.1.57,1.15,1.15,0,0,0,.26,0h.07A1.55,1.55,0,0,0,13,24a9.52,9.52,0,0,0,2.83-6.57C15.84,15.71,15.1,15.52,14.13,15.46Z"/></svg>