<svg id="레이어_1" data-name="레이어 1" xmlns="http://www.w3.org/2000/svg" viewBox="0 0 36 35"><defs><style>.cls-1{fill:none;stroke:#5b86ef;stroke-miterlimit:10;stroke-width:3px;}.cls-2{fill:#5b86ef;}</style></defs><path class="cls-1" d="M31,20.39C29.37,30,20.87,32,14,30.32s-10.66-9.14-9-16.14A12.65,12.65,0,0,1,19.83,4.34C27,5.5,32.78,9.85,31,20.39Z"/><path class="cls-2" d="M20.23,12.94a1.28,1.28,0,0,0-.85.68,1.55,1.55,0,0,0-.07,1.11,1.79,1.79,0,0,0,.65,1,1.27,1.27,0,0,0,1.1.19,1.92,1.92,0,0,1,2,.28,2.43,2.43,0,0,1,.12,2.44c-.5,1.19-1.38,2.25-4.16,1.08a1.26,1.26,0,0,0-1.75.81,2,2,0,0,0-.13,1.18,1.13,1.13,0,0,0,.7.84,9.2,9.2,0,0,0,2.89.74h.38a5.09,5.09,0,0,0,2.38-.56A5.54,5.54,0,0,0,26,19.8a5.37,5.37,0,0,0-.65-5.66A4.8,4.8,0,0,0,20.23,12.94Z"/><path class="cls-2" d="M17.3,11.5a1.74,1.74,0,0,0-1.15-1.12,2.93,2.93,0,0,0-1.83,0,2.89,2.89,0,0,0-1.5,1A1.77,1.77,0,0,0,12.49,13a1.74,1.74,0,0,0,1.15,1.12,2.44,2.44,0,0,0,.9.16,3,3,0,0,0,.92-.15,2.88,2.88,0,0,0,1.51-1A1.77,1.77,0,0,0,17.3,11.5Z"/><path class="cls-2" d="M14.48,15.64c-.84-.05-1.6,0-1.76,1.62A6.2,6.2,0,0,1,11.12,21a1.86,1.86,0,0,0-.69,1.34,1.63,1.63,0,0,0,.69,1.14,2.73,2.73,0,0,0,1,.53.88.88,0,0,0,.24,0h.06a1.39,1.39,0,0,0,1-.54,8.67,8.67,0,0,0,2.58-6C16,15.87,15.36,15.7,14.48,15.64Z"/></svg>