<svg id="레이어_1" data-name="레이어 1" xmlns="http://www.w3.org/2000/svg" viewBox="0 0 100 35"><defs><style>.cls-1{fill:#5b86ef;}</style></defs><path class="cls-1" d="M52.49,9.77C51,8.61,48.72,8.06,45.3,8.06H41.68a3.81,3.81,0,0,0-3.8,3.8V24.24a2.39,2.39,0,0,0,2.39,2.38h4a2.39,2.39,0,0,0,2.39-2.38V23a8,8,0,0,0,5.83-1.39c1.53-1.22,2.3-3.17,2.3-5.77C54.78,12.91,54.05,11,52.49,9.77Zm-.78,10.84c-1.24,1-3.11,1.35-5.59,1.06h0c-.57-.07-1.18-.17-1.82-.31a.61.61,0,0,0-.26,1.2c.49.11,1,.19,1.41.26v1.43a1.16,1.16,0,0,1-1.16,1.16h-4a1.16,1.16,0,0,1-1.16-1.16V11.86a2.58,2.58,0,0,1,2.57-2.57H45.3c3.13,0,5.17.46,6.43,1.45s1.82,2.58,1.82,5C53.55,18,52.93,19.62,51.71,20.61Z"/><path class="cls-1" d="M94.87,23.19l-.06-.09s-.53-.75-1.11-1.62a4.08,4.08,0,0,1,0-4.52c.57-.85,1.09-1.58,1.09-1.59a.22.22,0,0,0,0-.08,2.39,2.39,0,0,0-2.14-3.44H89.27a2.84,2.84,0,0,0-2,.88,4,4,0,0,0-.4.47V10.45a2.4,2.4,0,0,0-2.39-2.39h-4a2.4,2.4,0,0,0-2.39,2.39V24.24a2.39,2.39,0,0,0,2.39,2.38h4a2.38,2.38,0,0,0,2.09-1.23,3.51,3.51,0,0,0,.92.8,2.77,2.77,0,0,0,1.39.43h3.8a2.39,2.39,0,0,0,2.15-3.43ZM93.7,24.85a1.12,1.12,0,0,1-1,.55h-3.8a1.68,1.68,0,0,1-.76-.26,2.42,2.42,0,0,1-1-1.09l-.36-.79a.62.62,0,0,0-.56-.36h-.13a.61.61,0,0,0-.48.6v.73a1.16,1.16,0,0,1-1.16,1.16h-4a1.16,1.16,0,0,1-1.16-1.16V10.45a1.16,1.16,0,0,1,1.16-1.16h4a1.16,1.16,0,0,1,1.16,1.16V15.2a6.83,6.83,0,0,0-.52,3,.61.61,0,0,0,.65.57.6.6,0,0,0,.57-.64,5.73,5.73,0,0,1,1.13-3.73l.36-.48c.12-.16.22-.27.31-.37a1.67,1.67,0,0,1,1.09-.51h3.45a1.14,1.14,0,0,1,1,.55,1.12,1.12,0,0,1,.08,1.08c-.13.17-.58.83-1.08,1.56a5.32,5.32,0,0,0,0,5.89c.5.76,1,1.43,1.1,1.61A1.12,1.12,0,0,1,93.7,24.85Z"/><path class="cls-1" d="M18.83,14a2.8,2.8,0,0,0-.79-2,3.17,3.17,0,0,0-2.42-.43,5.36,5.36,0,0,0-2.26.95l-.08-.12a2.24,2.24,0,0,0-1.9-.62H7.22c-1.45,0-2.32,1-2.32,2.6V24.2a2.39,2.39,0,0,0,2.39,2.42h3.79a2.39,2.39,0,0,0,2.38-2.38V18.86c.7-.55,2.67-.55,3.65-.54h.25a1.43,1.43,0,0,0,1.08-.45c.65-.7.55-2,.45-3.29C18.86,14.37,18.84,14.16,18.83,14ZM17.53,17a.26.26,0,0,1-.18.05H17.1c-1.53,0-3.84,0-4.74,1.14a.59.59,0,0,0-.14.38v5.63a1.16,1.16,0,0,1-1.15,1.16H7.28a1.18,1.18,0,0,1-.83-.35,1.12,1.12,0,0,1-.33-.83V14.28c0-1.21.55-1.38,1.09-1.38h4.16c.78,0,.91.12.92.13a.58.58,0,0,1,0,.28,4.57,4.57,0,0,0-.91,1.18.61.61,0,1,0,1.1.55,5.38,5.38,0,0,1,3.27-2.35c.79-.09,1.28,0,1.5.15A1.76,1.76,0,0,1,17.61,14c0,.21,0,.42,0,.64C17.72,15.49,17.81,16.73,17.53,17Z"/><path class="cls-1" d="M67.91,12a1.77,1.77,0,0,0-1.15.92,2.17,2.17,0,0,0-.09,1.52,2.46,2.46,0,0,0,.88,1.31A1.73,1.73,0,0,0,69,16a2.6,2.6,0,0,1,2.67.38,3.26,3.26,0,0,1,.17,3.3c-.68,1.61-1.87,3-5.63,1.46a1.7,1.7,0,0,0-2.37,1.09,2.75,2.75,0,0,0-.18,1.6,1.57,1.57,0,0,0,1,1.14,12.16,12.16,0,0,0,3.91,1l.52,0a7,7,0,0,0,3.22-.76,7.45,7.45,0,0,0,3.4-3.93,7.22,7.22,0,0,0-.88-7.65C73.2,11.78,70.69,11.18,67.91,12Z"/><path class="cls-1" d="M63.94,10A2.35,2.35,0,0,0,62.39,8.5a3.9,3.9,0,0,0-2.46,0,3.94,3.94,0,0,0-2,1.39A2.36,2.36,0,0,0,57.45,12,2.38,2.38,0,0,0,59,13.52a3.76,3.76,0,0,0,1.22.2,4.22,4.22,0,0,0,1.25-.19,4,4,0,0,0,2-1.39A2.36,2.36,0,0,0,63.94,10Z"/><path class="cls-1" d="M31.54,10.86c-.93-.29-5.74-1.56-9.31,1.93-1.5,1.47-2.92,3.58-2.09,8.11.94,5.15,5.45,5.72,7.38,5.72h.42c3-.14,4.61-.69,6.28-2.18a5.74,5.74,0,0,0,1.54-5.5A4.6,4.6,0,0,0,36.13,17,6.62,6.62,0,0,0,31.54,10.86Zm-5,9.91a13.31,13.31,0,0,0,4.94.38,6.17,6.17,0,0,0,3.24-.93,4.11,4.11,0,0,1-1.29,3.29c-1.44,1.3-2.78,1.75-5.51,1.88-1.7.08-5.72-.23-6.55-4.71s.85-6.13,1.75-7a7.54,7.54,0,0,1,5.36-2.05,9.16,9.16,0,0,1,2.73.41,5.37,5.37,0,0,1,3.72,5,3.32,3.32,0,0,1-.29,1.53.39.39,0,0,0-.06.11c-.44.73-1.36,1.18-3.18,1.3a12.43,12.43,0,0,1-4.43-.31.6.6,0,0,0-.78.36A.62.62,0,0,0,26.51,20.77Z"/><path class="cls-1" d="M60.13,15.62c-1.13-.07-2.16,0-2.38,2.2a8.24,8.24,0,0,1-2.16,5,2.54,2.54,0,0,0-.93,1.81,2.23,2.23,0,0,0,.93,1.55A3.78,3.78,0,0,0,57,26.9a1.86,1.86,0,0,0,.33,0h.08a1.88,1.88,0,0,0,1.39-.74,11.78,11.78,0,0,0,3.49-8.09C62.24,15.93,61.33,15.7,60.13,15.62Z"/><path class="cls-1" d="M49.05,14.86a5.09,5.09,0,0,0-3.55.7.62.62,0,0,0,.33,1.14.63.63,0,0,0,.32-.1,3.85,3.85,0,0,1,2.69-.53.61.61,0,1,0,.21-1.21Z"/><path class="cls-1" d="M29.35,17.23a.68.68,0,0,0,.33-.09A1.87,1.87,0,0,1,31,16.87a.6.6,0,0,0,.71-.5.61.61,0,0,0-.49-.71A3.15,3.15,0,0,0,29,16.1a.61.61,0,0,0-.19.85A.63.63,0,0,0,29.35,17.23Z"/></svg>